# Blender 5.1.2
# www.blender.org
mtllib livro_fundacao.mtl
o Cube
v 0.117000 0.024000 -0.081000
v 0.117000 -0.018964 -0.081000
v 0.117000 0.018964 0.075964
v 0.117000 -0.018964 0.075964
v -0.117000 0.024000 -0.081000
v -0.117000 -0.018964 -0.081000
v -0.117000 0.018964 0.075964
v -0.117000 -0.018964 0.075964
v -0.117000 -0.024000 -0.081000
v -0.117000 -0.024000 0.081000
v 0.117000 -0.024000 -0.081000
v -0.117000 0.024000 0.081000
v 0.117000 0.024000 0.081000
v 0.117000 -0.024000 0.081000
v 0.117000 0.018964 -0.081000
v -0.117000 0.018964 -0.081000
v 0.113468 -0.018964 -0.075828
v 0.113468 0.018964 0.075964
v 0.113468 -0.018964 0.075964
v -0.113274 -0.018964 -0.075828
v -0.113274 0.018964 0.075964
v -0.113274 -0.018964 0.075964
v 0.113468 0.018964 -0.075828
v -0.113274 0.018964 -0.075828
vn -0.0000 1.0000 -0.0000
vn -0.0000 -0.0000 1.0000
vn -0.0000 -1.0000 -0.0000
vn -1.0000 -0.0000 -0.0000
vn -0.0000 -0.0000 -1.0000
vn 1.0000 -0.0000 -0.0000
vt 0.121083 0.829300
vt 0.882057 0.128481
vt 0.881490 0.830394
vt 0.892636 0.618170
vt 0.118170 0.415630
vt 0.891267 0.406725
vt 0.898835 0.127108
vt 0.110544 0.849083
vt 0.112537 0.123270
vt 0.875763 0.670850
vt 0.691573 0.635120
vt 0.881702 0.635394
vt 0.501416 0.670312
vt 0.691545 0.670585
vt 0.881429 0.973401
vt 0.875547 0.937927
vt 0.316981 0.937124
vt 0.311315 0.634573
vt 0.317198 0.670047
vt 0.501171 0.972854
vt 0.311042 0.972580
vt 0.691300 0.973127
vt 0.691329 0.937662
vt 0.501200 0.937389
vt 0.501444 0.634847
vt 0.183493 0.388156
vt 0.895314 0.628642
vt 0.182903 0.625497
vt 0.856533 0.633350
vt 0.162431 0.421243
vt 0.853158 0.403234
vt 0.195240 0.398758
vt 0.895212 0.582579
vt 0.191858 0.555625
vt 0.121651 0.127387
vt 0.119540 0.627075
vt 0.896842 0.852921
vt 0.895903 0.391301
vt 0.165806 0.651359
vt 0.898594 0.425712
s 0
usemtl Material
f 8/10/4 9/11/4 10/12/4
f 2/13/5 9/11/5 6/14/5
f 8/10/4 12/15/4 7/16/4
f 3/17/6 14/18/6 4/19/6
f 3/17/6 1/20/6 13/21/6
f 7/16/4 5/22/4 16/23/4
f 16/23/5 1/20/5 15/24/5
f 4/19/6 11/25/6 2/13/6
f 8/10/1 2/13/1 6/14/1
f 6/14/2 11/25/2 2/13/2
f 8/10/4 6/14/4 9/11/4
f 2/13/5 11/25/5 9/11/5
f 8/10/4 10/12/4 12/15/4
f 3/17/6 13/21/6 14/18/6
f 3/17/6 15/24/6 1/20/6
f 7/16/4 12/15/4 5/22/4
f 16/23/5 5/22/5 1/20/5
f 4/19/6 14/18/6 11/25/6
f 8/10/1 4/19/1 2/13/1
f 6/14/2 9/11/2 11/25/2
usemtl capa.001
f 5/1/1 13/2/1 1/3/1
f 5/1/1 12/35/1 13/2/1
usemtl contracapa.001
f 11/7/3 10/8/3 9/9/3
f 11/7/3 14/37/3 10/8/3
usemtl lombada.001
f 13/4/2 10/5/2 14/6/2
f 13/4/2 12/36/2 10/5/2
usemtl branco
f 3/17/3 16/23/3 15/24/3
f 3/17/3 7/16/3 16/23/3
usemtl miolo_baixo
f 23/29/6 19/30/6 17/31/6
f 23/29/6 18/39/6 19/30/6
usemtl miolo_cima
f 21/26/4 20/27/4 22/28/4
f 21/26/4 24/38/4 20/27/4
usemtl miolo_meio
f 24/32/5 17/33/5 20/34/5
f 24/32/5 23/40/5 17/33/5
